<svg xmlns="http://www.w3.org/2000/svg" width="82" height="70.148" viewBox="0 0 82 70.148">
  <g id="brain" transform="translate(-4 -7.4)">
    <path id="Path_18" data-name="Path 18" d="M70.989,45.733a9.781,9.781,0,0,0-5.918-8.889,7.544,7.544,0,0,0-5.326-12.889H59a8.8,8.8,0,0,0,.74-3.407A7.583,7.583,0,0,0,52.2,12.993a7.022,7.022,0,0,0-3.551.889C47.612,10.919,44.8,8.4,41.546,8.4A7.953,7.953,0,0,0,34,15.215h0V67.067h.148a9.479,9.479,0,0,0,9.617,9.481A9.684,9.684,0,0,0,53.235,68.7a9.677,9.677,0,0,0,12.576-9.185,10.7,10.7,0,0,0-1.184-4.741A9.545,9.545,0,0,0,70.989,45.733Z" transform="translate(14.011)" fill="#4f46e5" stroke="#707070" stroke-width="1"/>
    <path id="Path_19" data-name="Path 19" d="M5,45.733a9.781,9.781,0,0,1,5.918-8.889,7.544,7.544,0,0,1,5.326-12.889h.74a8.8,8.8,0,0,1-.74-3.407,7.583,7.583,0,0,1,7.546-7.556,7.022,7.022,0,0,1,3.551.889c1.036-2.963,3.847-5.481,7.1-5.481a7.953,7.953,0,0,1,7.546,6.815h0V67.067h-.148a9.479,9.479,0,0,1-9.617,9.481A9.684,9.684,0,0,1,22.755,68.7a9.677,9.677,0,0,1-12.576-9.185,10.7,10.7,0,0,1,1.184-4.741A9.545,9.545,0,0,1,5,45.733Z" fill="#10b981" stroke="#707070" stroke-width="1"/>
    <path id="Path_20" data-name="Path 20" d="M70.989,45.733a9.781,9.781,0,0,0-5.918-8.889,7.544,7.544,0,0,0-5.326-12.889H59a8.8,8.8,0,0,0,.74-3.407A7.583,7.583,0,0,0,52.2,12.993a7.022,7.022,0,0,0-3.551.889C47.612,10.919,44.8,8.4,41.546,8.4A7.953,7.953,0,0,0,34,15.215h0V67.067h.148a9.479,9.479,0,0,0,9.617,9.481A9.684,9.684,0,0,0,53.235,68.7a9.677,9.677,0,0,0,12.576-9.185,10.7,10.7,0,0,0-1.184-4.741A9.545,9.545,0,0,0,70.989,45.733Z" transform="translate(14.011)" fill="none" stroke="#2c3e50" stroke-linecap="round" stroke-linejoin="round" stroke-miterlimit="10" stroke-width="2"/>
    <path id="Path_21" data-name="Path 21" d="M5,45.733a9.781,9.781,0,0,1,5.918-8.889,7.544,7.544,0,0,1,5.326-12.889h.74a8.8,8.8,0,0,1-.74-3.407,7.583,7.583,0,0,1,7.546-7.556,7.022,7.022,0,0,1,3.551.889c1.036-2.963,3.847-5.481,7.1-5.481a7.953,7.953,0,0,1,7.546,6.815h0V67.067h-.148a9.479,9.479,0,0,1-9.617,9.481A9.684,9.684,0,0,1,22.755,68.7a9.677,9.677,0,0,1-12.576-9.185,10.7,10.7,0,0,1,1.184-4.741A9.545,9.545,0,0,1,5,45.733Z" fill="none" stroke="#2c3e50" stroke-linecap="round" stroke-linejoin="round" stroke-miterlimit="10" stroke-width="2"/>
    <path id="Path_22" data-name="Path 22" d="M15.5,35.219a9.412,9.412,0,0,1,9.765,5.622c3.255,7.4-1.036,12.872-7.4,14.944" transform="translate(5.059 12.921)" fill="none" stroke="#2c3e50" stroke-linecap="round" stroke-linejoin="round" stroke-miterlimit="10" stroke-width="2"/>
    <path id="Path_23" data-name="Path 23" d="M31.547,21.415s-3.7,5.918-10.357,4.439A10.279,10.279,0,0,1,13.2,18.9" transform="translate(3.953 5.058)" fill="none" stroke="#2c3e50" stroke-linecap="round" stroke-linejoin="round" stroke-miterlimit="10" stroke-width="2"/>
    <path id="Path_24" data-name="Path 24" d="M28.717,32.382A14.17,14.17,0,0,0,19.1,23.8" transform="translate(6.793 7.419)" fill="none" stroke="#2c3e50" stroke-linecap="round" stroke-linejoin="round" stroke-miterlimit="10" stroke-width="2"/>
    <path id="Path_25" data-name="Path 25" d="M43.486,30.2a11.986,11.986,0,0,0,3.847,11.541c2.663,2.367,7.99,3.107,12.576,2.515" transform="translate(18.432 10.507)" fill="none" stroke="#2c3e50" stroke-linecap="round" stroke-linejoin="round" stroke-miterlimit="10" stroke-width="2"/>
    <path id="Path_26" data-name="Path 26" d="M42,23.487s3.995,2.515,7.4,1.48,5.77-6.066,5.77-6.066" transform="translate(17.847 5.058)" fill="none" stroke="#2c3e50" stroke-linecap="round" stroke-linejoin="round" stroke-miterlimit="10" stroke-width="2"/>
    <path id="Path_27" data-name="Path 27" d="M40,46.446S41.923,38.9,50.8,38.9" transform="translate(16.862 14.692)" fill="none" stroke="#2c3e50" stroke-linecap="round" stroke-linejoin="round" stroke-miterlimit="10" stroke-width="2"/>
  </g>
</svg>
