<svg id="Camada_2" data-name="Camada 2" xmlns="http://www.w3.org/2000/svg" width="68.179" height="68.148" viewBox="0 0 68.179 68.148">
  <g id="Camada_1" data-name="Camada 1">
    <path id="Path_30" data-name="Path 30" d="M5.8,18.834a6.766,6.766,0,0,0,2.614.646v1.476a.492.492,0,0,0,0,.369.492.492,0,0,0,.369,0h1.322a.492.492,0,0,0,.369,0,.492.492,0,0,0,0-.369V19.48A6.3,6.3,0,0,0,14.043,18.1a3.752,3.752,0,0,0,1.322-3.075,3.69,3.69,0,0,0-.523-2.06,3.906,3.906,0,0,0-1.63-1.322,14.73,14.73,0,0,0-3.075-.953,16.484,16.484,0,0,1-1.753-.431,2.737,2.737,0,0,1-1.046-.677A1.415,1.415,0,0,1,7,8.624a1.445,1.445,0,0,1,.8-1.445,3.26,3.26,0,0,1,1.845-.431,3.075,3.075,0,0,1,1.6.431,1.722,1.722,0,0,1,.83,1.138.615.615,0,0,0,.615.369h2a.431.431,0,0,0,.431-.431,3.383,3.383,0,0,0-.554-1.6A4.705,4.705,0,0,0,13.059,5.21a5.843,5.843,0,0,0-2.183-.677V3.027a.461.461,0,0,0-.523-.523H8.907a.492.492,0,0,0-.369,0,.492.492,0,0,0,0,.369V4.349a5.536,5.536,0,0,0-3.26,1.384,3.721,3.721,0,0,0-1.2,2.8,3.444,3.444,0,0,0,1.169,2.8A8.98,8.98,0,0,0,8.907,12.9q1.507.4,2.276.677a3.075,3.075,0,0,1,1.169.677,1.292,1.292,0,0,1,.369.953,1.568,1.568,0,0,1-.738,1.353,4.029,4.029,0,0,1-2.214.492,3.752,3.752,0,0,1-2.06-.492,2.276,2.276,0,0,1-.984-1.2.953.953,0,0,0-.277-.308.677.677,0,0,0-.4,0H4.017a.461.461,0,0,0-.338,0,.431.431,0,0,0,0,.308A3.567,3.567,0,0,0,4.294,17.2,4.428,4.428,0,0,0,5.8,18.834Z" transform="translate(7.576 5.122)" fill="#4f46e5"/>
    <path id="Path_31" data-name="Path 31" d="M17.16,34.32A17.16,17.16,0,1,0,0,17.16,17.16,17.16,0,0,0,17.16,34.32Zm0-31.245A14.054,14.054,0,1,1,7.192,7.192,14.054,14.054,0,0,1,17.16,3.075Z" fill="#4f46e5"/>
    <path id="Path_32" data-name="Path 32" d="M24.459,22.831a14.607,14.607,0,0,0-3.075-.953,16.27,16.27,0,0,1-2.091-.646,2.737,2.737,0,0,1-1.046-.677,1.415,1.415,0,0,1-.338-.953,1.445,1.445,0,0,1,.677-1.292,3.26,3.26,0,0,1,1.845-.431,3.075,3.075,0,0,1,1.753.461,1.722,1.722,0,0,1,.83,1.138.615.615,0,0,0,.615.369h2a.431.431,0,0,0,.431-.431,3.383,3.383,0,0,0-.554-1.6A4.705,4.705,0,0,0,24,16.373a5.874,5.874,0,0,0-2.368-.83V14.036a.461.461,0,0,0-.523-.523H19.784a.523.523,0,0,0-.369,0,.492.492,0,0,0,0,.369v1.445a5.566,5.566,0,0,0-3.26,1.384,3.721,3.721,0,0,0-1.2,2.8,3.444,3.444,0,0,0,1.169,2.8,9.011,9.011,0,0,0,3.66,1.568q1.507.4,2.276.677a3.075,3.075,0,0,1,1.169.677,1.292,1.292,0,0,1,.369.953,1.568,1.568,0,0,1-.738,1.353,4.029,4.029,0,0,1-2.214.492,3.752,3.752,0,0,1-2.06-.492,2.276,2.276,0,0,1-.984-1.2.984.984,0,0,0-.277-.308.677.677,0,0,0-.4,0H15.017a.431.431,0,0,0-.338,0,.431.431,0,0,0,0,.308,3.567,3.567,0,0,0,.615,1.845,4.459,4.459,0,0,0,1.661,1.445,6.827,6.827,0,0,0,2.614.738v1.476a.492.492,0,0,0,0,.369.523.523,0,0,0,.369,0H21.26a.461.461,0,0,0,.523-.523v-1.23a6.3,6.3,0,0,0,3.567-1.384A3.752,3.752,0,0,0,26.673,26a3.66,3.66,0,0,0-.523-2.06,3.906,3.906,0,0,0-1.691-1.107Z" transform="translate(30.404 27.973)" fill="#10b981"/>
    <path id="Path_33" data-name="Path 33" d="M28.17,11A17.16,17.16,0,1,0,45.33,28.16,17.16,17.16,0,0,0,28.17,11Zm0,31.214A14.054,14.054,0,1,1,42.224,28.16,14.054,14.054,0,0,1,28.17,42.214Z" transform="translate(22.849 22.828)" fill="#10b981"/>
    <path id="Path_34" data-name="Path 34" d="M14.267,12.77H37.055L33.088,16.8A1.568,1.568,0,0,0,35.3,19.013l6.643-6.7h0a1.507,1.507,0,0,0,.431-1.076,1.569,1.569,0,0,0,0-.584,1.6,1.6,0,0,0-.431-.554L35.271,3.267a1.568,1.568,0,0,0-2.214,2.214l4.059,4.059H14.267a1.568,1.568,0,1,0,0,3.075Z" transform="translate(25.712 5.959)" fill="#f9fafb"/>
    <path id="Path_35" data-name="Path 35" d="M28.107,20.585H5.319l3.906-4.059a1.568,1.568,0,0,0-2.06-2.337L.46,21.047a1.522,1.522,0,0,0-.338,1.691,1.538,1.538,0,0,0,.308.492h0l6.7,6.7a1.568,1.568,0,1,0,2.091-2.183L5.319,23.692H28.107a1.568,1.568,0,0,0,0-3.075Z" transform="translate(0.001 28.865)" fill="#f9fafb"/>
  </g>
</svg>
