<svg xmlns="http://www.w3.org/2000/svg" width="67.896" height="68.148" viewBox="0 0 67.896 68.148">
  <g id="icons" transform="translate(0.01 0.1)">
    <g id="chart" transform="translate(-0.01 -0.1)">
      <path id="Path_56" data-name="Path 56" d="M52.875,32.286H35.35A7.483,7.483,0,0,1,28,24.937V7.694A3.177,3.177,0,0,0,24.326,4.02,28.347,28.347,0,0,0,.583,37.939C2.562,48.962,11.607,57.725,22.63,59.986A28.482,28.482,0,0,0,56.549,36.243,3.494,3.494,0,0,0,52.875,32.286Z" transform="translate(0.01 7.569)" fill="#10b981"/>
      <path id="Path_57" data-name="Path 57" d="M45.919,30.144A33.877,33.877,0,0,0,36.026,9.793,34.706,34.706,0,0,0,15.675-.1,3.742,3.742,0,0,0,12,3.575v27.7A2.832,2.832,0,0,0,14.827,34.1h27.7A3.435,3.435,0,0,0,45.919,30.144Z" transform="translate(21.947 0.1)" fill="#4f46e5"/>
    </g>
  </g>
</svg>
