<svg xmlns="http://www.w3.org/2000/svg" width="23.125" height="23.125" viewBox="0 0 23.125 23.125">
  <path id="Icon_ionic-ios-arrow-dropdown-circle" data-name="Icon ionic-ios-arrow-dropdown-circle" d="M3.375,14.938A11.563,11.563,0,1,0,14.938,3.375,11.561,11.561,0,0,0,3.375,14.938Zm16.071-2.413a1.077,1.077,0,0,1,1.518,0,1.06,1.06,0,0,1,.311.756,1.078,1.078,0,0,1-.317.762l-5.242,5.225a1.072,1.072,0,0,1-1.479-.033l-5.32-5.3a1.073,1.073,0,0,1,1.518-1.518l4.508,4.553Z" transform="translate(26.5 26.5) rotate(180)" fill="#4f46e5"/>
</svg>
