<svg id="Group" xmlns="http://www.w3.org/2000/svg" xmlns:xlink="http://www.w3.org/1999/xlink" width="856" height="38" viewBox="0 0 856 38">
  <defs>
    <linearGradient id="linear-gradient" x1="0.5" x2="0.5" y2="1" gradientUnits="objectBoundingBox">
      <stop offset="0" stop-color="#ecebec"/>
      <stop offset="1" stop-color="#d6d5d6"/>
    </linearGradient>
  </defs>
  <path id="top" d="M0,6V38H856V6q0-.147-.008-.294a2.583,2.583,0,0,0-.017-.294,2.585,2.585,0,0,0-.033-.292q-.017-.146-.042-.29a2.537,2.537,0,0,0-.05-.287l-.067-.284q-.033-.141-.075-.28t-.092-.275a2.456,2.456,0,0,0-.1-.269q-.05-.133-.109-.263t-.117-.256q-.067-.126-.134-.249t-.142-.241q-.075-.118-.151-.232T854.7,1.97q-.084-.109-.176-.213t-.176-.2q-.092-.1-.184-.192t-.2-.181a2.26,2.26,0,0,0-.2-.17q-.1-.082-.2-.158T853.35.708q-.109-.069-.217-.132l-.226-.119Q852.79.4,852.673.351t-.234-.092Q852.322.216,852.2.18t-.242-.065q-.117-.029-.242-.05t-.242-.036q-.125-.014-.242-.022T850.984,0H5.015q-.123,0-.246.007T4.523.029Q4.4.043,4.279.065t-.243.05Q3.916.144,3.8.18T3.559.258Q3.441.3,3.325.351T3.1.457q-.114.056-.225.119t-.22.132q-.109.069-.214.145t-.208.158q-.1.082-.2.17t-.194.181q-.1.093-.186.192t-.178.2q-.087.1-.17.213t-.161.223q-.078.114-.151.232t-.142.241q-.068.122-.132.249t-.121.256q-.058.13-.111.263t-.1.269q-.047.136-.089.275t-.077.28Q.18,4.4.15,4.541T.1,4.829q-.024.144-.042.29t-.03.292Q.012,5.558.006,5.7T0,6Z" fill-rule="evenodd" fill="url(#linear-gradient)"/>
  <g id="controls" transform="translate(10.86 13)">
    <path id="Oval-4" d="M5,10A5,5,0,1,0,0,5,5,5,0,0,0,5,10Z" fill="#ff6057" stroke="#e24942" stroke-width="0.5" fill-rule="evenodd"/>
    <path id="Oval-4-2" data-name="Oval-4" d="M5,10A5,5,0,1,0,0,5,5,5,0,0,0,5,10Z" transform="translate(16.708)" fill="#ffc12e" stroke="#e7a822" stroke-width="0.5" fill-rule="evenodd"/>
    <path id="Oval-4-3" data-name="Oval-4" d="M5,10A5,5,0,1,0,0,5,5,5,0,0,0,5,10Z" transform="translate(33.417)" fill="#28ca40" stroke="#1fb032" stroke-width="0.5" fill-rule="evenodd"/>
  </g>
</svg>
