<svg xmlns="http://www.w3.org/2000/svg" width="70.704" height="70.895" viewBox="0 0 70.704 70.895">
  <g id="Logo" transform="translate(0)">
    <g id="Group_2" data-name="Group 2" transform="translate(0)">
      <g id="Group_1" data-name="Group 1">
        <path id="Path_2" data-name="Path 2" d="M41.736,315.813H19.61a2.216,2.216,0,0,0-2.213,2.219v22.186a2.217,2.217,0,0,0,2.213,2.219H41.736a2.217,2.217,0,0,0,2.213-2.219V318.032a2.216,2.216,0,0,0-2.213-2.219Zm0,0" transform="translate(-17.397 -271.542)" fill="#f9fafb"/>
        <path id="Path_1" data-name="Path 1" d="M190.865,166.28H168.739a2.216,2.216,0,0,0-2.213,2.219v44.373a2.217,2.217,0,0,0,2.213,2.219h22.127a2.217,2.217,0,0,0,2.212-2.219V168.5a2.216,2.216,0,0,0-2.212-2.219Zm0,0" transform="translate(-144.45 -144.195)" fill="#f9fafb"/>
        <path id="Path_3" data-name="Path 3" d="M339.987,16.75H317.861a2.215,2.215,0,0,0-2.213,2.216V85.43a2.215,2.215,0,0,0,2.213,2.216h22.126A2.215,2.215,0,0,0,342.2,85.43V18.966a2.215,2.215,0,0,0-2.213-2.216Zm0,0" transform="translate(-271.497 -16.75)" fill="#f9fafb"/>
      </g>
    </g>
  </g>
</svg>
