<svg xmlns="http://www.w3.org/2000/svg" width="24.077" height="18.058" viewBox="0 0 24.077 18.058">
  <path id="Icon_awesome-chart-bar" data-name="Icon awesome-chart-bar" d="M15.65,16.539h1.806a.647.647,0,0,0,.6-.6V9.616a.647.647,0,0,0-.6-.6H15.65a.647.647,0,0,0-.6.6v6.32a.647.647,0,0,0,.6.6Zm4.514,0H21.97a.647.647,0,0,0,.6-.6V5.1a.647.647,0,0,0-.6-.6H20.165a.647.647,0,0,0-.6.6V15.937A.647.647,0,0,0,20.165,16.539Zm-13.543,0H8.427a.647.647,0,0,0,.6-.6V12.626a.647.647,0,0,0-.6-.6H6.621a.647.647,0,0,0-.6.6v3.311A.647.647,0,0,0,6.621,16.539Zm4.514,0h1.806a.647.647,0,0,0,.6-.6V6.607a.647.647,0,0,0-.6-.6H11.136a.647.647,0,0,0-.6.6v9.33A.647.647,0,0,0,11.136,16.539Zm12.189,3.01H3.01V5.252A.752.752,0,0,0,2.257,4.5H.752A.752.752,0,0,0,0,5.252v15.8a1.505,1.505,0,0,0,1.5,1.5h21.82a.752.752,0,0,0,.752-.752V20.3A.752.752,0,0,0,23.325,19.548Z" transform="translate(0 -4.5)" fill="#fff"/>
</svg>
