<svg xmlns="http://www.w3.org/2000/svg" width="24.077" height="24.067" viewBox="0 0 24.077 24.067">
  <path id="Icon_simple-cashapp" data-name="Icon simple-cashapp" d="M23.666,3.481a5.116,5.116,0,0,0-3.06-3.06A15.579,15.579,0,0,0,15.67,0H8.387A16.183,16.183,0,0,0,3.471.4a5.116,5.116,0,0,0-3.06,3.07A15.836,15.836,0,0,0,0,8.387V15.68A16.183,16.183,0,0,0,.4,20.6a5.116,5.116,0,0,0,3.06,3.06,15.836,15.836,0,0,0,4.916.411h7.3a16.148,16.148,0,0,0,4.916-.4,5.116,5.116,0,0,0,3.07-3.07,15.836,15.836,0,0,0,.411-4.916V8.407a15.873,15.873,0,0,0-.411-4.926Zm-6.19,4.645-.933.933a.5.5,0,0,1-.672.01,5.016,5.016,0,0,0-3.23-1.184c-.973,0-1.946.321-1.946,1.214s1.043,1.2,2.247,1.655c2.107.7,3.852,1.585,3.852,3.652,0,2.247-1.746,3.792-4.595,3.963l-.261,1.2a.492.492,0,0,1-.482.391h-1.8l-.09-.01a.5.5,0,0,1-.381-.592l.281-1.274a6.561,6.561,0,0,1-2.889-1.575V16.5a.482.482,0,0,1,0-.682l1-.973a.492.492,0,0,1,.672,0,4.851,4.851,0,0,0,3.4,1.324c1.3,0,2.177-.552,2.177-1.425s-.883-1.1-2.548-1.726C9.521,12.39,7.845,11.5,7.845,9.41c0-2.428,2.016-3.612,4.4-3.722L12.5,4.454a.482.482,0,0,1,.482-.381h1.786l.1.01a.48.48,0,0,1,.371.572l-.271,1.374a7.529,7.529,0,0,1,2.488,1.394l.02.02a.478.478,0,0,1,0,.682Z" fill="#fff"/>
</svg>
