<svg xmlns="http://www.w3.org/2000/svg" width="24.077" height="18.812" viewBox="0 0 24.077 18.812">
  <path id="Icon_awesome-exchange-alt" data-name="Icon awesome-exchange-alt" d="M0,9.2V8.451A1.129,1.129,0,0,1,1.129,7.323H18.058V5.066a1.129,1.129,0,0,1,1.927-.8L23.747,8.03a1.129,1.129,0,0,1,0,1.6l-3.762,3.762a1.129,1.129,0,0,1-1.927-.8V10.332H1.129A1.129,1.129,0,0,1,0,9.2Zm22.949,7.148H6.019V14.094a1.129,1.129,0,0,0-1.927-.8L.331,17.058a1.129,1.129,0,0,0,0,1.6l3.762,3.762a1.129,1.129,0,0,0,1.927-.8V19.361H22.949a1.129,1.129,0,0,0,1.129-1.129V17.48A1.129,1.129,0,0,0,22.949,16.352Z" transform="translate(0 -3.936)" fill="#fff"/>
</svg>
